<svg width="120" height="50" viewBox="0 0 120 50" fill="none" xmlns="http://www.w3.org/2000/svg">
<path d="M39.5 16.5V29.7H36.8V16.5H39.5Z" fill="#A5A8B6"/>
<path d="M50.5 20.8V29.7C50.5 32.5 48.3 34.2 45.7 34.2C43.2 34.2 41.3 32.6 41.1 30.4H43.8C43.9 31.3 44.7 31.8 45.8 31.8C46.8 31.8 47.8 31.2 47.8 29.8V28.7C47.1 29.1 46.2 29.4 45.3 29.4C42.9 29.4 40.9 27.4 40.9 25.1C40.9 22.4 42.9 20.7 45.3 20.7C46.3 20.7 47.2 21 47.8 21.4V20.9L50.5 20.8ZM47.8 26.1V23.9C47.2 23.1 46.5 22.8 45.7 22.8C44.4 22.8 43.5 23.7 43.5 25C43.5 26 44.4 27.1 45.7 27.1C46.5 27.1 47.2 26.9 47.8 26.1Z" fill="#A5A8B6"/>
<path d="M61.2 25.1C61.2 27.8 59.2 29.8 56.5 29.8C53.8 29.8 51.7 27.8 51.7 25.1C51.7 22.4 53.7 20.4 56.5 20.4C59.2 20.4 61.2 22.4 61.2 25.1ZM58.6 25.1C58.6 23.8 57.8 22.8 56.4 22.8C55.1 22.8 54.2 23.8 54.2 25.1C54.2 26.4 55 27.4 56.4 27.4C57.7 27.5 58.6 26.5 58.6 25.1Z" fill="#A5A8B6"/>
<path d="M77.8 20.8V29.7H75.2V29.2C74.5 29.6 73.6 29.9 72.7 29.9C70.3 29.9 68.3 27.8 68.3 25.3C68.3 22.7 70.3 20.6 72.7 20.6C73.7 20.6 74.6 20.9 75.2 21.3V20.8H77.8ZM75.2 26.6V23.9C74.6 23.1 73.9 22.9 73.1 22.9C71.8 22.9 70.8 24 70.8 25.3C70.8 26.6 71.7 27.7 73.1 27.7C73.9 27.6 74.7 27.4 75.2 26.6Z" fill="#A5A8B6"/>
<path d="M88.7 24.9V29.7H86.1V25.2C86.1 23.7 85.4 23 84.1 23C83.4 23 82.7 23.4 82.1 24.1V29.7H79.4V20.8H82V21.5C82.7 20.9 83.6 20.6 84.6 20.6C87 20.6 88.7 22.3 88.7 24.9Z" fill="#A5A8B6"/>
<path d="M102.1 16.9H101.4V18.5H101V16.9H100.3V16.6H102L102.1 16.9Z" fill="#A5A8B6"/>
<path d="M104.4 18.4H104V17.3L103.5 18.1H103.3L102.8 17.3V18.4H102.4V16.5H102.7L103.4 17.7L104.1 16.5H104.4V18.4Z" fill="#A5A8B6"/>
<path d="M35.6 29.7H32.8L31.1 23.1L27.3 29.7H24.2L30.1 19.4L29.1 15.9L21.2 29.7H18.1L28.2 12.2H30.9L32.1 16.5H34.8L33 19.8L35.6 29.7Z" fill="#A5A8B6"/>
<path d="M99.4 16.5V29.7H96.7V29.2C96 29.6 95.1 29.9 94.2 29.9C91.8 29.9 89.8 27.8 89.8 25.2C89.8 22.6 91.8 20.6 94.2 20.6C95.2 20.6 96.1 20.9 96.7 21.3V16.5H99.4ZM96.7 26.6V23.9C96.1 23.1 95.4 22.9 94.6 22.9C93.2 22.9 92.3 24 92.3 25.3C92.3 26.6 93.2 27.7 94.6 27.7C95.4 27.6 96.1 27.4 96.7 26.6Z" fill="#A5A8B6"/>
<path d="M67.8 23.1C67.2 23.2 65.8 23.2 65 24.4V29.8H62.3V21H65V21.7C65.6 21.2 66.5 20.9 67.8 21" fill="#A5A8B6"/>
</svg>
