<svg width="120" height="50" viewBox="0 0 120 50" fill="none" xmlns="http://www.w3.org/2000/svg">
<path d="M51 15.4H40.1C39.3 15.4 38.6 16.1 38.6 16.9C38.6 17.7 39.3 18.4 40.1 18.4H51C51.8 18.4 52.5 17.7 52.5 16.9C52.5 16.1 51.9 15.4 51 15.4Z" fill="#A5A8B6"/>
<path d="M51 21.1H40.1C39.3 21.1 38.6 21.8 38.6 22.6C38.6 23.4 39.3 24.1 40.1 24.1H51C51.8 24.1 52.5 23.4 52.5 22.6C52.5 21.8 51.9 21.1 51 21.1Z" fill="#A5A8B6"/>
<path d="M51 26.7H40.1C39.3 26.7 38.6 27.4 38.6 28.2C38.6 29 39.3 29.7 40.1 29.7H51C51.8 29.7 52.5 29 52.5 28.2C52.5 27.4 51.9 26.7 51 26.7Z" fill="#A5A8B6"/>
<path d="M29.8 15.4H26.3C25.5 15.4 24.8 16.1 24.8 16.9C24.8 17.7 25.5 18.4 26.3 18.4H29.8C32.1 18.4 33.9 20.3 33.9 22.5C33.9 24.8 32 26.6 29.8 26.6H26.3C25.5 26.6 24.8 27.3 24.8 28.1C24.8 28.9 25.5 29.6 26.3 29.6H29.8C33.7 29.6 36.9 26.4 36.9 22.4C36.9 18.6 33.7 15.4 29.8 15.4Z" fill="#A5A8B6"/>
<path d="M61.4 18.4H64.6H64.8C65.5 18.3 66.1 17.7 66.1 16.9C66.1 16.2 65.6 15.5 64.8 15.4H61.3C57.4 15.4 54.2 18.6 54.2 22.6C54.2 26.5 57.4 29.8 61.3 29.8H64.5H64.7C65.4 29.7 66 29.1 66 28.3C66 27.5 65.5 26.9 64.7 26.8H61.2C58.9 26.8 57.1 24.9 57.1 22.7C57.3 20.2 59.2 18.4 61.4 18.4Z" fill="#A5A8B6"/>
<path d="M82.7 28L76.3 15.8C76.1 15.3 75.5 15 75 15C74.5 15 73.9 15.3 73.7 15.8L67.3 28C67.2 28.2 67.1 28.5 67.1 28.8C67.1 29.6 67.8 30.3 68.6 30.3C69.2 30.3 69.7 29.9 70 29.4L75.1 19.7L80.2 29.4C80.4 29.9 81 30.3 81.6 30.3C82.4 30.3 83.1 29.6 83.1 28.8C82.9 28.5 82.8 28.2 82.7 28Z" fill="#A5A8B6"/>
<path d="M93.9 20.8C93.9 19.9 93.2 19.3 92.4 19.3C91.6 19.3 90.9 20 90.9 20.8V23.5L87 23.4L91.2 17.3C91.4 17.1 91.4 16.8 91.4 16.5C91.4 15.7 90.7 15 89.9 15C89.4 15 89 15.2 88.7 15.6L83 24C82.7 24.5 82.7 25.1 82.9 25.5C83.2 26 83.7 26.3 84.2 26.3L90.9 26.4V28.6C90.9 29.4 91.6 30.1 92.4 30.1C93.2 30.1 93.9 29.4 93.9 28.6V20.8Z" fill="#A5A8B6"/>
<path d="M58 40.4H57.3C57.3 40.4 57.2 40.4 57.2 40.3L57 39.2C57 39.2 57 39.2 56.9 39.2H55.5H55.4L55.1 40.4C55.1 40.4 55.1 40.5 55 40.5H54.3C54.2 40.5 54.2 40.5 54.2 40.4C54.2 40.4 54.2 40.2 54.3 40.1L55.8 35C55.8 35 55.8 34.9 55.9 34.9H56.4C56.4 34.9 56.5 34.9 56.5 35L58 40.1C58.1 40.2 58.1 40.3 58 40.4C58.1 40.4 58.1 40.4 58 40.4ZM56.7 38.2L56.3 36.7C56.3 36.6 56.2 36.4 56.2 36.3C56.2 36.4 56.1 36.6 56.1 36.7L55.7 38.1C55.7 38.2 55.6 38.3 55.6 38.3C55.6 38.3 55.6 38.4 55.7 38.4H56.6C56.7 38.4 56.7 38.4 56.7 38.3C56.7 38.3 56.7 38.3 56.7 38.2Z" fill="#A5A8B6"/>
<path d="M61.9 40.4H60.2C60.1 40.4 60.1 40.4 60.1 40.3V35C60.1 34.9 60.1 34.9 60.2 34.9H61.9C62.9 34.9 63.5 35.5 63.5 36.5V38.9C63.5 39.8 62.9 40.4 61.9 40.4ZM62.7 36.4C62.7 36 62.4 35.6 61.9 35.6H60.9C60.8 35.6 60.8 35.6 60.8 35.7V39.6C60.8 39.7 60.8 39.7 60.9 39.7H61.9C62.3 39.7 62.7 39.3 62.7 38.9V36.4Z" fill="#A5A8B6"/>
<path d="M69.1 35.1L67.5 40.3C67.5 40.3 67.5 40.4 67.4 40.4H66.9C66.9 40.4 66.8 40.4 66.8 40.3L65.3 35.2C65.3 35.1 65.2 35 65.2 35C65.2 35 65.2 34.9 65.3 34.9H66C66 34.9 66.1 34.9 66.1 35L67.1 38.6C67.1 38.7 67.2 38.9 67.2 39C67.2 38.9 67.3 38.7 67.3 38.6L68.3 35C68.3 35 68.3 34.9 68.4 34.9H69C69.1 34.9 69.1 34.9 69.1 35.1Z" fill="#A5A8B6"/>
<path d="M71.8 40.4H71.2C71.1 40.4 71.1 40.4 71.1 40.3V35C71.1 34.9 71.1 34.9 71.2 34.9H71.8C71.9 34.9 71.9 34.9 71.9 35L71.8 40.4Z" fill="#A5A8B6"/>
<path d="M75.8 40.5H75.4C74.7 40.5 74.3 40.2 74.1 39.9C74 39.8 74 39.7 74 39.6C74 39.6 74 39.6 74 39.5L74.4 39.3C74.4 39.3 74.5 39.2 74.6 39.2C74.6 39.2 74.6 39.2 74.7 39.3C74.9 39.6 75.1 39.8 75.4 39.8H75.8C76.2 39.8 76.6 39.4 76.6 39C76.6 38.5 76.1 38.2 75.6 38C74.9 37.7 74.2 37.3 74.2 36.3C74.2 35.4 74.8 34.8 75.8 34.8H75.9C76.6 34.8 77 35.1 77.2 35.4C77.2 35.5 77.3 35.6 77.3 35.6V35.7L76.7 36H76.6C76.6 36 76.6 36 76.5 36C76.3 35.7 76.1 35.5 75.8 35.5H75.7C75.3 35.5 74.9 35.9 74.9 36.3C74.9 36.8 75.4 37 76 37.3C76.7 37.6 77.4 38 77.4 39C77.4 39.9 76.7 40.5 75.8 40.5Z" fill="#A5A8B6"/>
<path d="M81.4 40.5H81.1C80.1 40.5 79.5 39.9 79.5 39V36.3C79.5 35.4 80.1 34.8 81.1 34.8H81.4C82.4 34.8 83 35.4 83 36.3V39C82.9 39.9 82.3 40.5 81.4 40.5ZM82.1 36.3C82.1 35.9 81.8 35.5 81.3 35.5H81C80.6 35.5 80.2 35.9 80.2 36.3V39C80.2 39.4 80.5 39.8 81 39.8H81.3C81.7 39.8 82.1 39.4 82.1 39V36.3Z" fill="#A5A8B6"/>
<path d="M88.5 40.4H87.8C87.8 40.4 87.7 40.4 87.7 40.3L87 38C87 38 87 38 86.9 38H86C86 38 86 38 86 38.1V40.4C86 40.5 86 40.5 85.9 40.5H85.3C85.2 40.5 85.2 40.5 85.2 40.4V35C85.2 34.9 85.2 34.9 85.3 34.9H87C88 34.9 88.6 35.5 88.6 36.5V36.6C88.6 37.1 88.2 37.6 87.8 37.8C87.8 37.8 87.8 37.8 87.8 37.9C87.8 37.9 87.8 38 87.9 38.1L88.6 40.2C88.6 40.3 88.7 40.4 88.7 40.4C88.6 40.4 88.6 40.4 88.5 40.4ZM87.8 36.4C87.8 36 87.5 35.6 87 35.6H86C85.9 35.6 85.9 35.6 85.9 35.7V37.2C85.9 37.3 85.9 37.3 86 37.3H87C87.4 37.3 87.8 36.9 87.8 36.4Z" fill="#A5A8B6"/>
<path d="M93.9 35.2L92.5 37.8C92.5 37.9 92.4 38 92.4 38.1V40.4C92.4 40.5 92.4 40.5 92.3 40.5H91.7C91.6 40.5 91.6 40.5 91.6 40.4V38C91.6 37.9 91.6 37.8 91.5 37.7L90.1 35V34.9C90.1 34.9 90.1 34.8 90.2 34.8H91H91.1L92.1 36.8C92.1 36.8 92.1 36.9 92.2 36.9C92.2 36.9 92.3 36.9 92.3 36.8L93.3 34.8C93.3 34.8 93.3 34.8 93.4 34.8H94.1C94.2 34.8 94.2 34.8 94.2 34.9C94 35 94 35.1 93.9 35.2Z" fill="#A5A8B6"/>
</svg>
