<svg width="120" height="50" viewBox="0 0 120 50" fill="none" xmlns="http://www.w3.org/2000/svg">
<path fill-rule="evenodd" clip-rule="evenodd" d="M27.3 26H33.1V24.6H27.3V26Z" fill="#A5A8B6"/>
<path fill-rule="evenodd" clip-rule="evenodd" d="M34.4 29.9H33.1V27.1H27.3V29.9H26V20.8H27.3V23.5H33.1V20.8H34.4V29.9ZM30.2 14C23.9 14 18.8 19.1 18.8 25.4C18.8 31.7 23.9 36.8 30.2 36.8C36.5 36.8 41.6 31.7 41.6 25.4C41.6 19.1 36.5 14 30.2 14Z" fill="#A5A8B6"/>
<path fill-rule="evenodd" clip-rule="evenodd" d="M58.9 24.6H52.9V20.3H51.4V30.5H52.9V26.1H58.9V30.5H60.5V20.3H58.9V24.6Z" fill="#A5A8B6"/>
<path fill-rule="evenodd" clip-rule="evenodd" d="M65.7 23.2C63.6 23.2 62.1 24.8 62.1 26.9C62.1 29 63.7 30.6 65.8 30.6C68.3 30.6 69.1 29 69.2 28.4V28.3H67.8C67.8 28.3 67.3 29.2 65.8 29.2C64.5 29.2 63.6 28.3 63.5 27H69.3V26.9C69.4 24.8 67.9 23.2 65.7 23.2ZM65.7 24.4C66.7 24.4 67.4 24.9 67.7 25.9H63.6C64 25 64.7 24.4 65.7 24.4Z" fill="#A5A8B6"/>
<path fill-rule="evenodd" clip-rule="evenodd" d="M76.5 24.3C76.1 23.8 75.3 23.2 74 23.2C71.9 23.2 70.5 24.7 70.5 26.9C70.5 29.1 71.9 30.6 74 30.6C75.4 30.6 76.2 29.8 76.5 29.4V30.4H77.9V19.9H76.5V24.3ZM74.2 29.3C72.8 29.3 71.9 28.3 71.9 26.9C71.9 25.5 72.8 24.5 74.2 24.5C75.5 24.5 76.5 25.5 76.5 26.9C76.5 28.3 75.6 29.3 74.2 29.3Z" fill="#A5A8B6"/>
<path fill-rule="evenodd" clip-rule="evenodd" d="M83.2 23.2C81.1 23.2 79.6 24.8 79.6 26.9C79.6 29 81.2 30.6 83.3 30.6C85.8 30.6 86.6 29 86.7 28.4V28.3H85.3C85.3 28.3 84.8 29.2 83.3 29.2C82 29.2 81.1 28.3 81 27H86.8V26.9C86.8 24.8 85.4 23.2 83.2 23.2ZM83.2 24.4C84.2 24.4 84.9 24.9 85.2 25.9H81.1C81.4 25 82.2 24.4 83.2 24.4Z" fill="#A5A8B6"/>
<path fill-rule="evenodd" clip-rule="evenodd" d="M89.9 24.4V23.4H88.5V30.5H89.9V26.5C89.9 25.2 90.5 24.8 92.2 24.8H94.1V23.4H92.3C90.8 23.3 90.2 23.9 89.9 24.4Z" fill="#A5A8B6"/>
<path fill-rule="evenodd" clip-rule="evenodd" d="M100.488 24.3013C100.188 23.9013 99.4885 23.2013 98.0885 23.2013C96.3885 23.2013 94.5885 24.5013 94.5885 26.9013C94.5885 29.1013 95.9885 30.6013 98.0885 30.6013C99.3885 30.6013 100.188 29.9013 100.488 29.4013V30.4013H101.888V23.3013H100.488V24.3013ZM100.488 26.9013C100.488 28.3013 99.5885 29.3013 98.2885 29.3013C96.9885 29.3013 96.0885 28.3013 96.0885 26.9013C96.0885 25.5013 96.9885 24.5013 98.2885 24.5013C99.5885 24.5013 100.488 25.5013 100.488 26.9013Z" fill="#A5A8B6"/>
</svg>
