<svg width="120" height="50" viewBox="0 0 120 50" fill="none" xmlns="http://www.w3.org/2000/svg">
<path d="M103 21.6V22C103 22 102.5 22.2 102.5 22.8V32.4C102.5 32.7 102.2 33 101.9 33H100L95.9 26.5C95.9 26.5 96 27 96 27.7V33H93.7V21.6H95.2C96 21.6 96.5 21.9 96.9 22.5C97.2 23 100.4 28 100.4 28C100.4 28 100.3 27.7 100.3 26.8V21.6H103ZM58.9 21.6V32.4C58.9 32.7 58.6 33 58.3 33H56.4L52.3 26.5C52.3 26.5 52.4 27 52.4 27.7V33H50V21.6H51.5C52.3 21.6 52.8 21.9 53.2 22.5C53.5 23 56.7 28 56.7 28C56.7 28 56.6 27.7 56.6 26.8V21.6H58.9ZM30.5 21.6H27.4V26H24.7V21.6H21.1V22C21.1 22 21.6 22.2 21.6 22.8V33H24.7V28H27.4V33H30.5V21.6ZM40.4 21.6H33.5V32C33.5 32.6 34.1 33 34.6 33H40.3C40.6 33 40.9 32.7 40.9 32.4V30.9H37C36.7 30.9 36.5 30.7 36.5 30.4V28H40V26H36.5V23.7H41V22.2C41 21.9 40.7 21.6 40.4 21.6ZM46.9 21.6H43.8V32.4C43.8 32.7 44.1 33 44.4 33H46.9V21.6ZM90.4 21.6H83.5V32C83.5 32.6 84.1 33 84.6 33H90.3C90.6 33 90.9 32.7 90.9 32.4V30.9H87C86.7 30.9 86.5 30.7 86.5 30.4V28H90V26H86.5V23.7H91V22.2C91 21.9 90.8 21.6 90.4 21.6ZM68.8 21.6H62V32C62 32.6 62.6 33 63.1 33H68.8C69.1 33 69.4 32.7 69.4 32.4V30.9H65.5C65.2 30.9 65 30.7 65 30.4V28H68.5V26H65V23.7H69.4V22.2C69.4 21.9 69.2 21.6 68.8 21.6ZM81.8 21.6H79.6C79.1 21.6 78.7 21.7 78.2 22.2C77.7 22.7 75.1 25.8 75.1 25.8V21.6H72V32.4C72 32.7 72.3 33 72.6 33H75.1V27.8C75.1 27.8 77.4 31.4 77.8 32C78.2 32.6 78.6 32.9 79.5 32.9H82L77.7 26.2L81.8 21.6Z" fill="#A5A8B6"/>
<path d="M15.4 25.8C15.2 25.9 15 25.8 15.1 25.6C15.2 25.3 16.7 20.6 16.7 20.6L12.4 17.5C12.2 17.4 12.3 17.1 12.5 17.1C12.8 17.1 17.8 17.1 17.8 17.1C17.8 17.1 19.3 12.3 19.4 12.1C19.5 11.9 19.7 11.9 19.8 12.1C19.9 12.4 21.4 17.1 21.4 17.1C21.4 17.1 26.4 17.1 26.7 17.1C26.9 17.1 27 17.3 26.8 17.5L24.2 19.3H21.2L20.3 16.4L19.4 19.3H16.4L18.8 21.1L17.9 24C17.9 23.9 15.6 25.7 15.4 25.8Z" fill="#A5A8B6"/>
</svg>
