<svg width="120" height="50" viewBox="0 0 120 50" fill="none" xmlns="http://www.w3.org/2000/svg">
<path fill-rule="evenodd" clip-rule="evenodd" d="M26.2 25C26.2 15.5 41.4 7.80001 60 7.80001C78.6 7.80001 93.8 15.5 93.8 25C93.8 34.5 78.6 42.2 60 42.2C41.4 42.2 26.2 34.5 26.2 25ZM96.3 25C96.3 14.6 80.1 6.10001 60 6.10001C40 6.10001 23.7 14.5 23.7 25C23.7 35.5 39.9 43.9 60 43.9C80 43.9 96.3 35.4 96.3 25Z" fill="#A5A8B6"/>
<path fill-rule="evenodd" clip-rule="evenodd" d="M35.4 30.3H32.7V19H35.4V23.2H39.6V19H42.2V30.3H39.6V25.5H35.4V30.3Z" fill="#A5A8B6"/>
<path fill-rule="evenodd" clip-rule="evenodd" d="M53 28C52.4 30.3 50.2 30.7 48.7 30.7C47.6 30.7 44.2 30.5 44.2 26.3C44.2 23.5 46.1 21.9 48.9 21.9C52.9 21.9 53.2 25.4 53.2 26.5V27H46.8C46.8 27.8 47.2 29.2 48.8 29.2C49.5 29.2 50.2 28.9 50.5 28.2H53V28ZM50.6 25.4C50.6 23.6 49.5 23.4 48.8 23.4C48.5 23.4 47 23.4 46.7 25.4H50.6Z" fill="#A5A8B6"/>
<path fill-rule="evenodd" clip-rule="evenodd" d="M57.2 23.1C57.8 22.2 59 21.8 60.1 21.8C61.2 21.8 62.9 22.1 62.9 25.2V30.3H60.4V25.6C60.4 24.8 60.3 23.5 59 23.5C57.4 23.5 57.3 25.4 57.3 25.7V30.4H54.8V22.1H57.2V23.1Z" fill="#A5A8B6"/>
<path fill-rule="evenodd" clip-rule="evenodd" d="M70.2 22.1H73.3L70 25.3L73.5 30.3H70.5L68.2 26.9L67.4 27.7V30.3H64.9V19H67.4V25.2L70.2 22.1Z" fill="#A5A8B6"/>
<path fill-rule="evenodd" clip-rule="evenodd" d="M76.5 25.4C76.7 23.4 78.2 23.4 78.6 23.4C79.2 23.4 80.3 23.6 80.4 25.4H76.5ZM80.2 28C80 28.7 79.2 29 78.5 29C76.9 29 76.5 27.6 76.5 26.8H83V26.3C83 25.3 82.8 21.7 78.7 21.7C76 21.7 74 23.2 74 26.1C74 30.3 77.4 30.5 78.5 30.5C80 30.5 82.2 30.2 82.8 27.8H80.2V28Z" fill="#A5A8B6"/>
<path fill-rule="evenodd" clip-rule="evenodd" d="M87.1 19V30.3H84.6V19H87.1Z" fill="#A5A8B6"/>
</svg>
