<svg width="120" height="50" viewBox="0 0 120 50" fill="none" xmlns="http://www.w3.org/2000/svg">
<path d="M9.7 35.7C9.6 35.7 9.6 35.7 9.6 35.6L3 26.3C3 26.2 3 26.2 3 26.2L7.7 15.9C7.7 15.8 7.8 15.8 7.8 15.8L19.1 14.7C19.2 14.7 19.2 14.7 19.2 14.8L25.8 24.1C25.8 24.2 25.8 24.2 25.8 24.2L21 34.5C21 34.6 20.9 34.6 20.9 34.6L9.7 35.7ZM3.3 26.3L9.8 35.5L21 34.5L25.7 24.3L19.2 15L8 16L3.3 26.3Z" fill="#A5A8B6"/>
<path d="M9.69999 35.7L7.89999 26.2V15.9L16.8 18.5L26 24.2L19.1 30.3L9.69999 35.7ZM7.89999 16V26.2L9.69999 35.5L18.9 30.2L25.6 24.2L16.5 18.6L7.89999 16Z" fill="#A5A8B6"/>
<path d="M16.9 18.9C17.0657 18.9 17.2 18.7657 17.2 18.6C17.2 18.4343 17.0657 18.3 16.9 18.3C16.7343 18.3 16.6 18.4343 16.6 18.6C16.6 18.7657 16.7343 18.9 16.9 18.9Z" fill="#A5A8B6"/>
<path d="M16.9 19.3C16.6 19.3 16.2 19 16.2 18.6C16.2 18.3 16.5 17.9 16.9 17.9C17.2 17.9 17.6 18.2 17.6 18.6C17.5 19 17.2 19.3 16.9 19.3Z" fill="#A5A8B6"/>
<path d="M19.1 30.5C19.2657 30.5 19.4 30.3657 19.4 30.2C19.4 30.0343 19.2657 29.9 19.1 29.9C18.9343 29.9 18.8 30.0343 18.8 30.2C18.8 30.3657 18.9343 30.5 19.1 30.5Z" fill="#A5A8B6"/>
<path d="M19.1 30.9C18.8 30.9 18.4 30.6 18.4 30.2C18.4 29.8 18.7 29.5 19.1 29.5C19.4 29.5 19.8 29.8 19.8 30.2C19.8 30.6 19.4 30.9 19.1 30.9ZM19.1 30.2C19 30.2 19 30.2 19.1 30.2V30.2Z" fill="#A5A8B6"/>
<path d="M9.8 35.9C9.96569 35.9 10.1 35.7657 10.1 35.6C10.1 35.4343 9.96569 35.3 9.8 35.3C9.63431 35.3 9.5 35.4343 9.5 35.6C9.5 35.7657 9.63431 35.9 9.8 35.9Z" fill="#A5A8B6"/>
<path d="M9.80001 36.3C9.50001 36.3 9.10001 36 9.10001 35.6C9.10001 35.3 9.40001 34.9 9.80001 34.9C10.2 34.9 10.5 35.2 10.5 35.6C10.5 36 10.2 36.3 9.80001 36.3Z" fill="#A5A8B6"/>
<path d="M7.90001 26.6C8.06569 26.6 8.20001 26.4657 8.20001 26.3C8.20001 26.1343 8.06569 26 7.90001 26C7.73432 26 7.60001 26.1343 7.60001 26.3C7.60001 26.4657 7.73432 26.6 7.90001 26.6Z" fill="#A5A8B6"/>
<path d="M7.90001 27C7.60001 27 7.20001 26.7 7.20001 26.3C7.20001 26 7.50001 25.6 7.90001 25.6C8.30001 25.6 8.60001 25.9 8.60001 26.3C8.60001 26.7 8.30001 27 7.90001 27Z" fill="#A5A8B6"/>
<path d="M25.8 24.5C25.9657 24.5 26.1 24.3657 26.1 24.2C26.1 24.0343 25.9657 23.9 25.8 23.9C25.6343 23.9 25.5 24.0343 25.5 24.2C25.5 24.3657 25.6343 24.5 25.8 24.5Z" fill="#A5A8B6"/>
<path d="M25.8 24.9C25.5 24.9 25.1 24.6 25.1 24.2C25.1 23.9 25.4 23.5 25.8 23.5C26.1 23.5 26.5 23.8 26.5 24.2C26.5 24.6 26.2 24.9 25.8 24.9Z" fill="#A5A8B6"/>
<path d="M7.90001 16.2C8.06569 16.2 8.20001 16.0657 8.20001 15.9C8.20001 15.7343 8.06569 15.6 7.90001 15.6C7.73432 15.6 7.60001 15.7343 7.60001 15.9C7.60001 16.0657 7.73432 16.2 7.90001 16.2Z" fill="#A5A8B6"/>
<path d="M7.90001 16.6C7.60001 16.6 7.20001 16.3 7.20001 15.9C7.20001 15.6 7.50001 15.2 7.90001 15.2C8.30001 15.2 8.60001 15.5 8.60001 15.9C8.60001 16.3 8.30001 16.6 7.90001 16.6ZM7.90001 15.9C7.90001 16 7.90001 16 7.90001 15.9V15.9Z" fill="#A5A8B6"/>
<path d="M21 34.7L12.3 31.6L3 26.4V26.3C3 26.2 3 26.2 3.1 26.2L10.1 19.8L19.2 14.8C19.3 14.8 19.3 14.8 19.3 14.8L19.4 14.9L21.4 23.9L21.2 34.6C21.1 34.6 21.1 34.6 21 34.7ZM3.3 26.2L12.4 31.3L20.9 34.3L21.1 23.8L19.1 15L10.2 19.9L3.3 26.2Z" fill="#A5A8B6"/>
<path d="M19.1 30.3L7.79999 26.4L7.89999 26.3L16.9 18.5L19.1 30.3ZM7.89999 26.3L19 30.1L16.8 18.6L7.89999 26.3Z" fill="#A5A8B6"/>
<path d="M12.3 31.7L9.89999 19.7L21.4 23.8L12.3 31.7ZM10.3 20L12.5 31.2L21.1 23.8L10.3 20Z" fill="#A5A8B6"/>
<path d="M7.97877 15.8321L7.80441 15.9301L10.0085 19.8532L10.1829 19.7552L7.97877 15.8321Z" fill="#A5A8B6"/>
<path d="M9.90001 35.7L9.70001 35.5L12.3 31.4L12.5 31.6L9.90001 35.7Z" fill="#A5A8B6"/>
<path d="M21.2515 23.8192L21.2369 24.0186L25.7248 24.3466L25.7393 24.1471L21.2515 23.8192Z" fill="#A5A8B6"/>
<path d="M31 21.4H32.8V24.5H36.3V21.4H38.1V29.7H36.3V26.2H32.8V29.7H31V21.4Z" fill="#A5A8B6"/>
<path d="M41.8 26.1L38.7 21.3H41L42.7 24.4L44.6 21.3H46.7L43.6 26.1V29.6H41.8V26.1Z" fill="#A5A8B6"/>
<path d="M47.2 21.4H50.3C50.7 21.4 51.1 21.5 51.5 21.5C51.9 21.6 52.2 21.7 52.5 21.9C52.8 22.1 53 22.4 53.2 22.7C53.4 23 53.4 23.5 53.4 23.9C53.4 24.4 53.3 24.8 53.2 25.1C53 25.4 52.9 25.7 52.6 25.9C52.3 26.1 52 26.2 51.6 26.3C51.3 26.4 50.8 26.4 50.4 26.4H49.1V29.6H47.3L47.2 21.4ZM48.9 24.9H50.1C50.3 24.9 50.4 24.9 50.6 24.8C50.8 24.7 50.9 24.7 51 24.6C51.1 24.5 51.2 24.4 51.3 24.3C51.4 24.2 51.4 24 51.4 23.8C51.4 23.6 51.3 23.4 51.2 23.3C51.1 23.2 51 23.1 50.9 23C50.7 22.9 50.6 22.9 50.4 22.9C50.2 22.9 50.1 22.9 49.9 22.9H49L48.9 24.9Z" fill="#A5A8B6"/>
<path d="M54.5 21.4H60.1V23.1H56.3V24.7H59.9V26.4H56.3V28H60.3V29.7H54.5V21.4Z" fill="#A5A8B6"/>
<path d="M61.6 21.4H64.8C65.2 21.4 65.6 21.5 66 21.5C66.4 21.6 66.7 21.7 67 21.9C67.3 22.1 67.5 22.4 67.7 22.7C67.9 23 67.9 23.4 67.9 23.9C67.9 24.5 67.7 25 67.4 25.4C67.1 25.8 66.6 26.1 66.1 26.2L68.2 29.7H66L64.3 26.4H63.4V29.7H61.6V21.4ZM63.5 24.8H64.6C64.8 24.8 64.9 24.8 65.1 24.8C65.3 24.8 65.4 24.7 65.6 24.7C65.8 24.6 65.9 24.5 65.9 24.4C66 24.3 66 24.1 66 23.9C66 23.6 65.9 23.5 65.9 23.4C65.8 23.3 65.7 23.2 65.6 23.1C65.5 23 65.3 23 65.1 23C64.9 23 64.8 22.9 64.6 22.9H63.4L63.5 24.8Z" fill="#A5A8B6"/>
<path d="M69.1 21.4H71V28H74.4V29.7H69.2L69.1 21.4Z" fill="#A5A8B6"/>
<path d="M75.3 21.4H80.9V23.1H77.1V24.7H80.7V26.4H77.1V28H81.1V29.7H75.3V21.4Z" fill="#A5A8B6"/>
<path d="M82.4 21.4H85.1C85.7 21.4 86.4 21.5 87 21.6C87.6 21.8 88.1 22 88.6 22.3C89.1 22.6 89.4 23.1 89.6 23.6C89.9 24.1 90 24.8 90 25.5C90 26.2 89.9 26.8 89.6 27.2C89.4 27.7 89 28.1 88.6 28.5C88.2 28.8 87.7 29.1 87.1 29.3C86.5 29.5 85.9 29.6 85.4 29.6H82.5L82.4 21.4ZM84.3 28H85.2C85.6 28 86 27.9 86.4 27.9C86.7 27.8 87.1 27.7 87.3 27.5C87.6 27.3 87.8 27 87.9 26.7C88.1 26.4 88.1 26 88.1 25.5C88.1 25.1 88 24.7 87.9 24.5C87.7 24.2 87.6 24 87.3 23.7C87.1 23.5 86.7 23.4 86.4 23.2C86.1 23.1 85.7 23 85.3 23.1H84.2L84.3 28Z" fill="#A5A8B6"/>
<path d="M98.7 29C98.2 29.3 97.6 29.5 97 29.6C96.4 29.7 95.8 29.8 95.2 29.8C94.6 29.8 94 29.7 93.4 29.5C92.9 29.3 92.4 29 92 28.6C91.6 28.3 91.3 27.8 91.1 27.2C90.9 26.7 90.8 26 90.8 25.4C90.8 24.8 90.9 24.1 91.1 23.6C91.3 23.1 91.6 22.6 92 22.2C92.4 21.8 92.9 21.5 93.4 21.3C93.9 21.1 94.6 21 95.2 21C95.8 21 96.5 21.1 97 21.2C97.6 21.4 98 21.6 98.4 22L97.1 23.4C96.9 23.2 96.6 22.9 96.3 22.8C96 22.7 95.6 22.6 95.1 22.6C94.7 22.6 94.3 22.7 94.1 22.8C93.8 22.9 93.5 23.1 93.3 23.4C93.1 23.6 92.9 23.9 92.8 24.3C92.7 24.6 92.6 25 92.6 25.3C92.6 25.7 92.7 26.1 92.8 26.3C92.9 26.6 93.1 26.9 93.3 27.1C93.5 27.3 93.8 27.5 94.1 27.7C94.4 27.8 94.8 27.9 95.1 27.9C95.5 27.9 95.9 27.8 96.1 27.8C96.4 27.7 96.6 27.6 96.8 27.5V26.2H95.3V24.5H98.6L98.7 29Z" fill="#A5A8B6"/>
<path d="M100.3 21.4H105.9V23.1H102.1V24.7H105.7V26.4H102.1V28H106.1V29.7H100.3V21.4Z" fill="#A5A8B6"/>
<path d="M107.4 21.4H110.6C111 21.4 111.4 21.5 111.8 21.5C112.2 21.6 112.5 21.7 112.8 21.9C113.1 22.1 113.3 22.4 113.5 22.7C113.7 23 113.7 23.4 113.7 23.9C113.7 24.5 113.5 25 113.2 25.4C112.9 25.8 112.4 26 111.9 26.2L114 29.7H111.8L110.1 26.4H109.2V29.7H107.4V21.4ZM109.3 24.8H110.4C110.6 24.8 110.7 24.8 110.9 24.8C111.1 24.8 111.2 24.7 111.4 24.7C111.6 24.6 111.7 24.5 111.7 24.4C111.8 24.3 111.9 24.1 111.9 23.9C111.9 23.6 111.8 23.5 111.8 23.4C111.7 23.3 111.6 23.2 111.5 23.1C111.4 23 111.2 23 111 23C110.8 23 110.7 22.9 110.5 22.9H109.3V24.8Z" fill="#A5A8B6"/>
</svg>
