<svg width="120" height="50" viewBox="0 0 120 50" fill="none" xmlns="http://www.w3.org/2000/svg">
<path fill-rule="evenodd" clip-rule="evenodd" d="M43.2 29.5V20.5H45.6L48.7 27.2L51.7 20.5H54V29.5H52V24.3L49.7 29.5H47.6L45.3 24.3V29.5H43.2Z" fill="#A5A8B6"/>
<path fill-rule="evenodd" clip-rule="evenodd" d="M62 26L60.3 22.2L58.8 26H62ZM57.3 29.5H55L59 20.4H61.9L66 29.5H63.7L62.9 27.7H58L57.3 29.5Z" fill="#A5A8B6"/>
<path fill-rule="evenodd" clip-rule="evenodd" d="M66.8 29.5V20.5H75.5V22.3H68.9V24.1H74.6V25.9H68.9V27.7H75.5V29.5H66.8Z" fill="#A5A8B6"/>
<path fill-rule="evenodd" clip-rule="evenodd" d="M79.3 24.6H83.9V22.2H79.3V24.6ZM77.2 29.5V20.4H84.5C85.5 20.4 86 21 86 21.9V25C86 25.7 85.4 26.3 84.2 26.3C84.1 26.3 84.1 26.3 84 26.3L86.1 29.5H83.8L81.8 26.4H79.4V29.5H77.2Z" fill="#A5A8B6"/>
<path fill-rule="evenodd" clip-rule="evenodd" d="M89.8 29.5H89.1C88.2 29.5 87.7 29 87.7 28.2V27H89.8V27.7H94.3V25.8C94.3 25.8 90 25.8 89.2 25.8C88.4 25.8 87.8 25.2 87.8 24.5V21.8C87.8 21 88.4 20.4 89.2 20.4C90 20.4 95.1 20.4 95.1 20.4C95.9 20.4 96.4 21 96.4 21.8C96.4 22.7 96.4 22.9 96.4 22.9H94.3V22.2H89.8V24H94.9C95.7 24 96.3 24.5 96.3 25.5V28.1C96.3 29 95.8 29.5 94.9 29.5C94.1 29.5 89.8 29.5 89.8 29.5Z" fill="#A5A8B6"/>
<path fill-rule="evenodd" clip-rule="evenodd" d="M98.4 29.5V20.5H100.6V24.1L104.7 20.5H107.6L102.7 24.7L107.7 29.5H104.7L100.6 25.4V29.5H98.4Z" fill="#A5A8B6"/>
<path fill-rule="evenodd" clip-rule="evenodd" d="M32.2 14.7H17.4C16.1 14.7 15 15.8 15 17.1V33C15 34.3 16.1 35.4 17.4 35.4H32.2C33.5 35.4 34.5 34.3 34.5 33V17C34.5 15.7 33.5 14.7 32.2 14.7ZM33.4 27.2H27.2L28.6 33.2L24.7 28.4L20.8 33.2L22.2 27.2H16L21.6 24.5L17.7 19.7L23.3 22.4L24.7 16.4L26.1 22.4L31.7 19.7L27.8 24.5L33.4 27.2Z" fill="#A5A8B6"/>
</svg>
