<svg width="120" height="50" viewBox="0 0 120 50" fill="none" xmlns="http://www.w3.org/2000/svg">
<path d="M55.0999 21.4V31.6H53.2999V23.6L50.0999 31.6H49L45.7999 23.6V31.6H44.2V21.4H46.7L49.5999 28.9L52.7 21.4H55.0999ZM56.5999 22.2C56.5999 21.9 56.7 21.7 56.9 21.5C57.1 21.3 57.2999 21.2 57.5999 21.2C57.8999 21.2 58.2 21.3 58.4 21.5C58.6 21.7 58.7 21.9 58.7 22.2C58.7 22.5 58.6 22.7 58.4 22.9C58.2 23.1 57.9999 23.2 57.5999 23.2C57.1999 23.2 57.1 23.1 56.9 22.9C56.7 22.7 56.5999 22.4 56.5999 22.2ZM58.5 24.3V31.6H56.7999V24.3H58.5ZM63.7 30.3C64 30.3 64.2 30.3 64.5 30.1C64.7999 30 65.1 29.8 65.3 29.6V31.2C65 31.4 64.7 31.5 64.4 31.6C64 31.7 63.7 31.7 63.2 31.7C62.1 31.7 61.1999 31.4 60.5999 30.7C59.8999 30 59.5999 29.1 59.5999 28.1C59.5999 26.9 59.9999 26 60.5999 25.2C61.2999 24.4 62.2 24.1 63.5 24.1C63.7999 24.1 64.2 24.1 64.5 24.2C64.7999 24.3 65.1 24.4 65.3 24.5V26.1C65 25.9 64.7999 25.7 64.5 25.7C64.2 25.6 63.9 25.5 63.7 25.5C63 25.5 62.4999 25.7 62.0999 26.2C61.6999 26.6 61.5 27.2 61.5 28C61.5 28.7 61.6999 29.3 62.0999 29.7C62.3999 30.1 63 30.3 63.7 30.3ZM70.1999 24.1C70.2999 24.1 70.4999 24.1 70.5999 24.1C70.6999 24.1 70.8 24.1 70.9 24.2V26C70.8 25.9 70.7 25.9 70.5 25.8C70.2999 25.7 70.1 25.7 69.9 25.7C69.5 25.7 69.1 25.9 68.8 26.2C68.5 26.5 68.4 27.1 68.4 27.8V31.5H66.6999V24.2H68.4V25.4C68.6 25 68.7999 24.7 69.0999 24.5C69.3999 24.3 69.7999 24.1 70.1999 24.1ZM71 28C71 26.8 71.4 25.8 72 25.1C72.7 24.4 73.6 24 74.8 24C75.9 24 76.7999 24.3 77.5 25C78.0999 25.7 78.5 26.6 78.5 27.8C78.5 29 78.0999 29.9 77.5 30.6C76.7999 31.3 75.8999 31.7 74.6999 31.7C73.5999 31.7 72.7 31.4 72 30.7C71.2999 30.1 71 29.2 71 28ZM72.8 28C72.8 28.8 73 29.3 73.3 29.7C73.6 30.1 74.1 30.3 74.8 30.3C75.4 30.3 75.8999 30.1 76.1999 29.7C76.4999 29.3 76.6999 28.7 76.6999 27.9C76.6999 27.1 76.4999 26.5 76.1999 26.1C75.8999 25.7 75.4 25.5 74.8 25.5C74.2 25.5 73.7 25.7 73.3 26.1C72.9 26.6 72.8 27.2 72.8 28ZM81 26.2C81 26.4 81.0999 26.6 81.1999 26.8C81.3999 26.9 81.6999 27.1 82.1999 27.3C82.8999 27.6 83.3999 27.9 83.5999 28.2C83.8999 28.6 84 29 84 29.4C84 30.1 83.6999 30.6 83.1999 31C82.6999 31.4 82 31.6 81.0999 31.6C80.7999 31.6 80.5 31.6 80.0999 31.5C79.6999 31.4 79.3999 31.3 79.1999 31.2V29.5C79.4999 29.7 79.8999 29.9 80.1999 30C80.5999 30.1 80.8999 30.2 81.1999 30.2C81.5999 30.2 81.9 30.2 82 30C82.2 29.9 82.3 29.7 82.3 29.5C82.3 29.3 82.2 29.1 82 28.9C81.7999 28.7 81.4 28.5 80.9 28.3C80.3 28 79.7999 27.7 79.5999 27.4C79.2999 27.1 79.1999 26.6 79.1999 26.1C79.1999 25.4 79.5 24.9 80 24.5C80.5 24.1 81.2 23.9 82 23.9C82.2999 23.9 82.5 23.9 82.8 24C83.1 24.1 83.3999 24.1 83.5999 24.2V26C83.3999 25.9 83.1 25.7 82.8 25.6C82.5 25.5 82.2 25.4 81.9 25.4C81.6 25.4 81.2999 25.5 81.0999 25.6C81.0999 25.8 81 26 81 26.2ZM84.9 28C84.9 26.8 85.3 25.8 85.9 25.1C86.6 24.4 87.4999 24 88.6999 24C89.7999 24 90.7 24.3 91.4 25C92 25.7 92.4 26.6 92.4 27.8C92.4 29 92 29.9 91.4 30.6C90.7 31.3 89.7999 31.7 88.5999 31.7C87.5 31.7 86.6 31.4 85.9 30.7C85.2 30.1 84.9 29.2 84.9 28ZM86.6999 28C86.6999 28.8 86.8999 29.3 87.1999 29.7C87.5999 30.1 87.9999 30.3 88.6999 30.3C89.2999 30.3 89.7999 30.1 90.0999 29.7C90.3999 29.3 90.5999 28.7 90.5999 27.9C90.5999 27.1 90.3999 26.5 90.0999 26.1C89.7999 25.7 89.2999 25.5 88.6999 25.5C88.0999 25.5 87.5999 25.7 87.1999 26.1C86.8999 26.6 86.6999 27.2 86.6999 28ZM98.0999 25.7H95.5V31.6H93.8V25.7H92.5999V24.3H93.8V23.3C93.8 22.5 94.0999 21.9 94.5999 21.4C95.0999 20.9 95.7 20.7 96.5 20.7C96.7 20.7 96.8999 20.7 97.0999 20.7C97.2999 20.7 97.4 20.7 97.5 20.8V22.3C97.5 22.3 97.2999 22.2 97.1999 22.2C97.0999 22.2 96.7999 22 96.5999 22C96.1999 22 96 22.1 95.8 22.3C95.6 22.5 95.5 22.9 95.5 23.3V24.2H98.0999V22.6L99.8 22.1V24.3H101.5V25.7H99.8V29.1C99.8 29.5 99.9 29.9 100 30C100.2 30.2 100.4 30.3 100.8 30.3C100.9 30.3 101 30.3 101.2 30.2C101.3 30.2 101.5 30.1 101.6 30V31.4C101.5 31.5 101.3 31.5 101.1 31.6C100.8 31.6 100.6 31.7 100.3 31.7C99.6 31.7 98.9999 31.5 98.6999 31.1C98.2999 30.7 98.1999 30.1 98.1999 29.4L98.0999 25.7Z" fill="#A5A8B6"/>
<path d="M30.2 18H22.1V26.1H30.2V18Z" fill="#A5A8B6"/>
<path d="M39.1 18H31V26.1H39.1V18Z" fill="#A5A8B6"/>
<path d="M30.2 26.9H22.1V35H30.2V26.9Z" fill="#A5A8B6"/>
<path d="M39.1 26.9H31V35H39.1V26.9Z" fill="#A5A8B6"/>
</svg>
