<svg width="120" height="50" viewBox="0 0 120 50" fill="none" xmlns="http://www.w3.org/2000/svg">
<path d="M31.1 21.6C30.7 21.4 30.2 21.4 29.8 21.6L26.8 23.4L24.8 24.6L21.8 26.4C21.4 26.6 20.9 26.6 20.5 26.4L18.2 25C17.8 24.8 17.6 24.3 17.6 23.9V21C17.6 20.5 17.8 20.1 18.2 19.9L20.5 18.5C20.9 18.3 21.4 18.3 21.8 18.5L24.1 19.9C24.5 20.1 24.7 20.6 24.7 21V22.8L26.7 21.6V19.8C26.7 19.3 26.5 18.9 26.1 18.7L21.8 16.1C21.4 15.9 20.9 15.9 20.5 16.1L16.1 18.7C15.7 18.9 15.5 19.4 15.5 19.8V25C15.5 25.5 15.7 25.9 16.1 26.1L20.5 28.7C20.9 28.9 21.4 28.9 21.8 28.7L24.8 27L26.8 25.8L29.8 24.1C30.2 23.9 30.7 23.9 31.1 24.1L33.4 25.5C33.8 25.7 34 26.2 34 26.6V29.4C34 29.9 33.8 30.3 33.4 30.5L31.1 31.9C30.7 32.1 30.2 32.1 29.8 31.9L27.5 30.5C27.1 30.3 26.9 29.8 26.9 29.4V27.6L24.9 28.8V30.6C24.9 31.1 25.1 31.5 25.5 31.7L29.9 34.3C30.3 34.5 30.8 34.5 31.2 34.3L35.6 31.7C36 31.5 36.2 31 36.2 30.6V25.4C36.2 24.9 36 24.5 35.6 24.3L31.1 21.6Z" fill="#A5A8B6"/>
<path d="M44.1 32.7V28.4C44.6 29 45.4 29.3 46.4 29.3C48.9 29.3 50.6 27.5 50.6 24.8C50.6 22.1 49.1 20.3 46.7 20.3C45.6 20.3 44.7 20.7 44.2 21.4V20.5H41.8V32.7H44.1ZM46.1 27.2C44.8 27.2 44 26.2 44 24.8C44 23.3 44.8 22.4 46.1 22.4C47.3 22.4 48.2 23.4 48.2 24.8C48.2 26.3 47.3 27.2 46.1 27.2Z" fill="#A5A8B6"/>
<path d="M55.9 29.3C58.5 29.3 60.4 27.4 60.4 24.8C60.4 22.2 58.5 20.3 55.9 20.3C53.3 20.3 51.4 22.2 51.4 24.8C51.4 27.4 53.3 29.3 55.9 29.3ZM55.9 27.2C54.6 27.2 53.7 26.2 53.7 24.8C53.7 23.4 54.6 22.4 55.9 22.4C57.2 22.4 58.1 23.4 58.1 24.8C58.1 26.2 57.2 27.2 55.9 27.2Z" fill="#A5A8B6"/>
<path d="M64.3 29.2V16.7H61.9V29.2H64.3Z" fill="#A5A8B6"/>
<path d="M71.4 20.5L69.6 26.1L67.8 20.5H65.4L68.5 29.1L67.2 32.7H69.5L70.7 29.2L73.8 20.6H71.4V20.5Z" fill="#A5A8B6"/>
<path d="M80.5 21.3C80 20.7 79.2 20.3 78.1 20.3C75.6 20.3 74.1 22.1 74.1 24.8C74.1 27.5 75.6 29.3 78.2 29.3C79.2 29.3 80.1 28.9 80.6 28.3V29.4C80.6 30.2 80.1 30.8 79.4 30.8H75.4V32.7H79.7C81.6 32.7 82.9 31.5 82.9 29.7V20.5H80.5V21.3ZM78.6 27.2C77.3 27.2 76.5 26.3 76.5 24.8C76.5 23.3 77.3 22.4 78.6 22.4C79.9 22.4 80.7 23.4 80.7 24.8C80.7 26.3 79.9 27.2 78.6 27.2Z" fill="#A5A8B6"/>
<path d="M88.9 29.3C91.6 29.3 93.4 27.4 93.4 24.8C93.4 22.2 91.5 20.3 88.9 20.3C86.3 20.3 84.4 22.2 84.4 24.8C84.4 27.4 86.3 29.3 88.9 29.3ZM88.9 27.2C87.6 27.2 86.7 26.2 86.7 24.8C86.7 23.4 87.6 22.4 88.9 22.4C90.2 22.4 91.1 23.4 91.1 24.8C91.1 26.2 90.2 27.2 88.9 27.2Z" fill="#A5A8B6"/>
<path d="M97.2 29.2V24.4C97.2 23.3 97.9 22.5 99 22.5C100 22.5 100.7 23.3 100.7 24.3V29.2H103.1V23.8C103.1 21.8 101.8 20.4 99.9 20.4C98.7 20.4 97.8 20.9 97.3 21.7V20.5H94.9V29.2H97.2Z" fill="#A5A8B6"/>
</svg>
