<svg width="120" height="50" viewBox="0 0 120 50" fill="none" xmlns="http://www.w3.org/2000/svg">
<path fill-rule="evenodd" clip-rule="evenodd" d="M42.3 38.4L42.7 37.2C42.8 36.9 42.9 36.6 42.9 36.3C43 36.6 43.1 36.9 43.1 37.2L43.5 38.4H42.3ZM43.7 39L44.1 40.2H45.1L43.5 35.6H42.4L40.8 40.2H41.7L42.1 39H43.7Z" fill="#A5A8B6"/>
<path fill-rule="evenodd" clip-rule="evenodd" d="M46 40.2H46.9V38.2C46.9 38.1 46.9 38 46.9 37.9C47 37.7 47.2 37.4 47.5 37.4C47.9 37.4 48.1 37.7 48.1 38.2V40.1H49V38.1C49 38 49 37.9 49 37.8C49.1 37.6 49.3 37.4 49.6 37.4C50 37.4 50.2 37.7 50.2 38.3V40.1H51.1V38.1C51.1 37 50.5 36.7 49.9 36.7C49.6 36.7 49.4 36.8 49.2 36.9C49 37 48.9 37.1 48.8 37.3C48.6 36.9 48.3 36.7 47.8 36.7C47.2 36.7 46.9 37 46.7 37.3V36.8H45.9C45.9 37.1 45.9 37.4 45.9 37.8V40.2H46Z" fill="#A5A8B6"/>
<path fill-rule="evenodd" clip-rule="evenodd" d="M51.7 40C52 40.1 52.4 40.3 52.8 40.3C53.8 40.3 54.4 39.8 54.4 39.2C54.4 38.7 54.1 38.5 53.4 38.3C52.9 38.2 52.7 38.1 52.7 37.9C52.7 37.7 52.9 37.6 53.3 37.6C53.6 37.6 53.9 37.7 54.1 37.8L54.3 37.2C54.1 37.1 53.7 37 53.3 37C52.4 37 51.9 37.5 51.9 38.1C51.9 38.5 52.2 38.8 52.9 39C53.4 39.1 53.6 39.2 53.6 39.5C53.6 39.7 53.4 39.9 52.9 39.9C52.6 39.9 52.2 39.8 51.9 39.7L51.7 40Z" fill="#A5A8B6"/>
<path fill-rule="evenodd" clip-rule="evenodd" d="M55 36.2V36.8H54.5V37.5H55V39.1C55 39.5 55.1 39.8 55.3 40C55.5 40.2 55.7 40.3 56.1 40.3C56.4 40.3 56.6 40.3 56.7 40.2V39.6C56.6 39.6 56.5 39.6 56.4 39.6C56.1 39.6 55.9 39.4 55.9 39V37.5H56.7V36.8H55.9V36L55 36.2Z" fill="#A5A8B6"/>
<path fill-rule="evenodd" clip-rule="evenodd" d="M58 38.1C58 37.8 58.3 37.5 58.8 37.5C59.4 37.5 59.5 37.9 59.5 38.1H58ZM60.4 38.8C60.4 38.7 60.4 38.6 60.4 38.4C60.4 37.8 60 36.9 58.8 36.9C57.7 36.9 57 37.8 57 38.6C57 39.6 57.7 40.3 58.9 40.3C59.4 40.3 59.8 40.2 60.2 40.1L60.1 39.5C59.8 39.6 59.5 39.7 59.1 39.7C58.5 39.7 58 39.4 58 38.8H60.4Z" fill="#A5A8B6"/>
<path fill-rule="evenodd" clip-rule="evenodd" d="M61 40.2H61.9V38.5C61.9 38.3 61.9 38.2 61.9 38.1C62 37.7 62.3 37.4 62.7 37.4C62.8 37.4 62.9 37.4 63 37.4V36.8C62.9 36.8 62.9 36.8 62.8 36.8C62.4 36.8 62 37 61.8 37.4V36.8H61C61 37.1 61 37.4 61 37.9V40.2Z" fill="#A5A8B6"/>
<path fill-rule="evenodd" clip-rule="evenodd" d="M65.9 38.8C65.9 38.9 65.9 38.9 65.9 39C65.8 39.4 65.5 39.6 65.2 39.6C64.7 39.6 64.4 39.2 64.4 38.6C64.4 38 64.7 37.5 65.2 37.5C65.6 37.5 65.8 37.8 65.9 38.1C65.9 38.2 65.9 38.3 65.9 38.3V38.8ZM65.9 35.4V37.3C65.8 37.1 65.4 36.9 65 36.9C64.2 36.9 63.5 37.6 63.5 38.7C63.5 39.7 64.2 40.4 65 40.4C65.5 40.4 65.9 40.2 66.1 39.8V40.4H66.9C66.9 40.2 66.9 39.8 66.9 39.5V35.6H65.9V35.4Z" fill="#A5A8B6"/>
<path fill-rule="evenodd" clip-rule="evenodd" d="M69.6 39.1C69.5 39.4 69.3 39.6 69 39.6C68.8 39.6 68.6 39.5 68.6 39.2C68.6 38.8 69.1 38.7 69.7 38.7L69.6 39.1ZM70.4 38.3C70.4 37.6 70.1 36.8 69 36.8C68.5 36.8 68.1 37 67.8 37.1L68 37.7C68.2 37.6 68.6 37.5 68.9 37.5C69.4 37.5 69.5 37.9 69.5 38.1V38.2C68.4 38.2 67.6 38.7 67.6 39.4C67.6 39.8 68 40.4 68.7 40.4C69.1 40.4 69.4 40.2 69.6 39.9L69.7 40.4H70.5C70.5 40.2 70.4 39.9 70.4 39.7V38.3Z" fill="#A5A8B6"/>
<path fill-rule="evenodd" clip-rule="evenodd" d="M71.5 40.2H72.4V38.2C72.4 38.1 72.4 38 72.4 37.9C72.5 37.7 72.7 37.4 73 37.4C73.4 37.4 73.6 37.7 73.6 38.2V40.1H74.5V38.1C74.5 38 74.5 37.9 74.5 37.8C74.6 37.6 74.8 37.4 75.1 37.4C75.5 37.4 75.7 37.7 75.7 38.3V40.1H76.6V38.1C76.6 37 76 36.7 75.4 36.7C75.1 36.7 74.9 36.8 74.7 36.9C74.5 37 74.4 37.1 74.3 37.3C74.1 36.9 73.8 36.7 73.3 36.7C72.7 36.7 72.4 37 72.2 37.3V36.8H71.4C71.4 37.1 71.4 37.4 71.4 37.8L71.5 40.2Z" fill="#A5A8B6"/>
<path fill-rule="evenodd" clip-rule="evenodd" d="M80.8 38.4L81.2 37.2C81.3 36.9 81.4 36.6 81.4 36.3C81.5 36.6 81.6 36.9 81.6 37.2L82 38.4H80.8ZM82.2 39L82.6 40.2H83.6L82 35.7H80.9L79.3 40.3H80.2L80.6 39.1L82.2 39Z" fill="#A5A8B6"/>
<path fill-rule="evenodd" clip-rule="evenodd" d="M84.8 35.7C84.5 35.7 84.4 35.9 84.4 36.2C84.4 36.4 84.6 36.7 84.8 36.7C85.1 36.7 85.3 36.5 85.3 36.2C85.3 35.9 85.1 35.7 84.8 35.7ZM85.3 40.2V36.8H84.4V40.2H85.3Z" fill="#A5A8B6"/>
<path fill-rule="evenodd" clip-rule="evenodd" d="M86.3 40.2H87.2V38.5C87.2 38.3 87.2 38.2 87.2 38.1C87.3 37.7 87.6 37.4 88 37.4C88.1 37.4 88.2 37.4 88.3 37.4V36.8C88.2 36.8 88.2 36.8 88.1 36.8C87.7 36.8 87.3 37 87.1 37.4V36.8H86.3C86.3 37.1 86.3 37.4 86.3 37.9V40.2Z" fill="#A5A8B6"/>
<path fill-rule="evenodd" clip-rule="evenodd" d="M89.9 38.3C89.9 38.3 89.9 38.2 89.9 38.1C90 37.7 90.3 37.5 90.6 37.5C91.1 37.5 91.4 38 91.4 38.5C91.4 39.1 91.1 39.6 90.6 39.6C90.3 39.6 90 39.4 89.9 39C89.9 38.9 89.9 38.9 89.9 38.8V38.3ZM89 41.7H89.9V39.8C90.1 40.1 90.4 40.2 90.8 40.2C91.5 40.2 92.3 39.6 92.3 38.4C92.3 37.4 91.6 36.7 90.9 36.7C90.4 36.7 90 36.9 89.8 37.3V36.7H89C89 37 89 37.4 89 37.8V41.7Z" fill="#A5A8B6"/>
<path fill-rule="evenodd" clip-rule="evenodd" d="M94.7 37.5C95.3 37.5 95.6 38.1 95.6 38.6C95.6 39.2 95.2 39.7 94.7 39.7C94.2 39.7 93.8 39.2 93.8 38.6C93.8 38 94.1 37.5 94.7 37.5ZM94.7 36.8C93.6 36.8 92.9 37.5 92.9 38.5C92.9 39.5 93.7 40.2 94.7 40.2C95.6 40.2 96.5 39.6 96.5 38.5C96.5 37.6 95.8 36.8 94.7 36.8Z" fill="#A5A8B6"/>
<path fill-rule="evenodd" clip-rule="evenodd" d="M97.3 40.2H98.2V38.5C98.2 38.3 98.2 38.2 98.2 38.1C98.3 37.7 98.6 37.4 99 37.4C99.1 37.4 99.2 37.4 99.3 37.4V36.8C99.2 36.8 99.2 36.8 99.1 36.8C98.7 36.8 98.3 37 98.1 37.4V36.8H97.3C97.3 37.1 97.3 37.4 97.3 37.9V40.2Z" fill="#A5A8B6"/>
<path fill-rule="evenodd" clip-rule="evenodd" d="M100 36.2V36.8H99.5V37.5H100V39.1C100 39.5 100.1 39.8 100.3 40C100.5 40.2 100.7 40.3 101.1 40.3C101.4 40.3 101.6 40.3 101.7 40.2V39.6C101.6 39.6 101.5 39.6 101.4 39.6C101.1 39.6 100.9 39.4 100.9 39V37.5H101.7V36.8H100.9V36L100 36.2Z" fill="#A5A8B6"/>
<path fill-rule="evenodd" clip-rule="evenodd" d="M16.7 29.6C17.7 30 18.7 30.3 20.5 30.3C24.9 30.3 26.9 28.1 26.9 25.4C26.9 23.1 25.6 21.7 22.8 20.6C20.7 19.8 19.9 19.4 19.9 18.4C19.9 17.6 20.6 16.8 22.1 16.8C23.7 16.8 24.8 17.3 25.4 17.6L26.2 14.7C25.3 14.3 23.9 13.9 22.1 13.9C18.3 13.9 16.1 16 16.1 18.7C16.1 21 17.8 22.5 20.5 23.5C22.4 24.2 23.1 24.7 23.1 25.7C23.1 26.4 22.2 27.3 20.5 27.3C19 27.3 17.9 26.7 16.9 26.2L16.7 29.6Z" fill="#A5A8B6"/>
<path fill-rule="evenodd" clip-rule="evenodd" d="M37.0999 26.7C36.5999 26.9 35.6 27.4 34.7 27.4C32.9 27.4 31.7999 26.1 31.7999 24C31.7999 22.1 32.6999 20.7 34.5999 20.7C35.5999 20.7 36.2 20.9 36.7 21.1L36.9 18.2C36.1 17.9 35.2999 17.7 34.2999 17.7C29.9999 17.7 28.2 20.7 28.2 24C28.2 27.6 30.3999 30 34.0999 30C35.4999 30 36.3999 29.9 37.0999 29.5V26.7Z" fill="#A5A8B6"/>
<path fill-rule="evenodd" clip-rule="evenodd" d="M38.9 29.8H42.5V23C42.5 22.7 42.5 22.4 42.6 22.2C42.9 21.6 43.8 20.4 44.8 20.4C46.2 20.4 46.4 21.9 46.4 23.4V29.6H48.9C49.4 29.6 50.1 28.9 50.1 28.9V23C50.1 19.6 48.3 17.6 46 17.6C45.3 17.6 44.4 17.7 43.8 17.9C43.2 18.2 43 18.4 42.6 18.9L42.5 12.2C42.5 12.2 42.1 12.4 41.7 12.4C41.4 12.4 40.5 12.6 40.1 12.7C39.5 12.9 38.9 13.5 38.9 13.5C38.9 13.7 38.9 29.8 38.9 29.8Z" fill="#A5A8B6"/>
<path fill-rule="evenodd" clip-rule="evenodd" d="M71.9 29.8H75.5V23C75.5 22.7 75.5 22.4 75.6 22.2C75.9 21.6 76.8 20.4 77.8 20.4C79.2 20.4 79.4 21.9 79.4 23.4V29.6H81.9C82.4 29.6 83.1 28.9 83.1 28.9V23C83.1 19.6 81.3 17.6 79 17.6C78.3 17.6 77.4 17.7 76.8 17.9C76.2 18.2 76 18.4 75.6 18.9L75.5 12.2C75.5 12.2 75.1 12.4 74.7 12.4C74.4 12.4 73.5 12.6 73.1 12.7C72.5 12.9 71.9 13.5 71.9 13.5C72 13.7 71.9 29.8 71.9 29.8Z" fill="#A5A8B6"/>
<path fill-rule="evenodd" clip-rule="evenodd" d="M98.2 29.8H100.7C101.2 29.8 101.9 29.1 101.9 29.1V23.2V12.4C101.9 12.4 101.5 12.6 101.1 12.6C100.8 12.6 99.9 12.8 99.5 12.9C98.9 13.1 98.3 13.7 98.3 13.7L98.2 29.8Z" fill="#A5A8B6"/>
<path fill-rule="evenodd" clip-rule="evenodd" d="M55.9 16.8V13.4C55.9 13.4 55.5 13.6 55.1 13.6C54.8 13.6 53.9 13.8 53.5 13.9C52.9 14.1 52.3 14.7 52.3 14.7V16.8H55.9Z" fill="#A5A8B6"/>
<path fill-rule="evenodd" clip-rule="evenodd" d="M55.7999 29.2V18.2H52.2V29.8H54.7999C55.3999 29.8 55.7999 29.2 55.7999 29.2Z" fill="#A5A8B6"/>
<path fill-rule="evenodd" clip-rule="evenodd" d="M62 23.4C62 23.2 61.9999 23 62.0999 22.8C62.2999 21.7 63.0999 20.7 64.1999 20.7C65.7999 20.7 66.5 22.3 66.5 24.1C66.5 26 65.7999 27.4 64.1999 27.4C63.1999 27.4 62.2999 26.7 62.0999 25.7C62.0999 25.5 62 25.2 62 25V23.4ZM58.4 34.4H60.7C61.3 34.4 62 33.7 62 33.7V28.7C62.5 29.4 63.6 30 65 30C67.6 30 69.9 28.1 69.9 23.9C69.9 20.3 67.7999 17.9 65.1999 17.9C63.4999 17.9 62.4 18.5 61.5 19.7V20V18.2H58.2C58.4 19.3 58.4 34.4 58.4 34.4Z" fill="#A5A8B6"/>
<path fill-rule="evenodd" clip-rule="evenodd" d="M90.5 20.8C92.2 20.8 93 22.4 93 24.1C93 26.1 92 27.4 90.5 27.4C88.9 27.4 88 26 88 24.1C88 22.5 88.7 20.8 90.5 20.8ZM90.6 17.9C86.8 17.9 84.4 20.6 84.4 24.2C84.4 27.8 86.9 30.1 90.4 30.1C93.6 30.1 96.7 28.1 96.7 24.1C96.7 20.7 94.2 17.9 90.6 17.9Z" fill="#A5A8B6"/>
</svg>
