<svg width="120" height="50" viewBox="0 0 120 50" fill="none" xmlns="http://www.w3.org/2000/svg">
<path fill-rule="evenodd" clip-rule="evenodd" d="M91.7 31.6V19.4H89.4V27.6L84.6 19.4H80.8V31.6H83V23.4L87.7 31.6H91.7ZM58.1 31.6L61.9 22.9V31.6H65.4V19.4H60.9L57.6 27L54.1 19.3H49.6V31.6H52V23.1L55.8 31.6H58.1ZM78.1 31.6V29.6H72.3V26.3H77.3V24.4H72.3V21.3H78V19.4H68.8V31.7L78.1 31.6ZM47.2 31.6V29.6H41.4V26.3H46.4V24.4H41.4V21.3H47.1V19.4H37.9V31.7L47.2 31.6ZM31.1 31.6H34.6V19.4H31.1V31.6ZM102.8 21.6V19.4C99 18.6 96.2 19.2 95 20.5C93.6 22 93.6 24.3 95.7 25.7C96.9 26.4 97.8 26.7 98.9 27.2C99.7 27.5 100.4 27.9 100.4 28.5C100.4 29.2 99.7 29.6 99 29.7C97.7 29.9 95.9 29.6 94.3 29.2V31.4C97.2 32.1 99.6 32.2 101.7 31.3C102.8 30.8 103.4 30.1 103.7 28.8C104.1 27.4 103.6 26.6 103 25.9C102.4 25.2 101.4 24.5 100.1 24C98.9 23.5 98 23.2 97.6 22.7C97.3 22.4 96.9 21.7 98.3 21.1C99.3 20.7 101.4 21 102.8 21.6ZM27.8 21.6V19.4C24 18.6 21.2 19.2 20 20.5C18.6 22 18.6 24.3 20.7 25.7C21.9 26.4 22.8 26.7 23.9 27.2C24.7 27.5 25.4 27.9 25.4 28.5C25.4 29.2 24.7 29.6 24 29.7C22.7 29.9 20.9 29.6 19.3 29.2V31.4C22.2 32.1 24.6 32.2 26.7 31.3C27.8 30.8 28.4 30.1 28.7 28.8C29.1 27.4 28.6 26.6 28 25.9C27.4 25.2 26.4 24.5 25.1 24C23.9 23.5 23 23.2 22.6 22.7C22.3 22.4 21.9 21.7 23.3 21.1C24.3 20.7 26.4 21 27.8 21.6Z" fill="#A5A8B6"/>
</svg>
