<svg width="120" height="50" viewBox="0 0 120 50" fill="none" xmlns="http://www.w3.org/2000/svg">
<path d="M43.9 24.1H47.7C48.2 24.1 48.7 24.5 48.7 25.1C48.7 25.6 48.3 26.1 47.7 26.1H43.2C43.1 26.1 43.1 26.1 43 26.2L41.6 27.4C41.4 27.6 41.5 27.9 41.8 27.9H47.5C47.6 27.9 47.6 27.9 47.7 27.9C49.2 27.9 50.4 26.7 50.4 25.2C50.4 23.8 49.3 22.6 47.9 22.5H43.9C43.4 22.5 42.9 22.1 42.9 21.5C42.9 21 43.3 20.5 43.9 20.5H48.4C48.5 20.5 48.5 20.5 48.6 20.4L49.9 19.2C50.1 19 50 18.7 49.7 18.7H44H43.9C42.4 18.7 41.2 19.9 41.2 21.4C41.1 22.8 42.3 24.1 43.9 24.1Z" fill="#A5A8B6"/>
<path d="M65.7 18.6C65.5 18.6 65.4 18.7 65.4 18.9V27.5C65.4 27.7 65.5 27.8 65.7 27.8H72.6C72.7 27.8 72.8 27.8 72.8 27.7L73.7 26.8C73.9 26.6 73.7 26.3 73.5 26.3H67.5C67.3 26.3 67.2 26.2 67.2 26V19C67.2 18.8 67.1 18.7 66.9 18.7H65.7V18.6Z" fill="#A5A8B6"/>
<path fill-rule="evenodd" clip-rule="evenodd" d="M54.7 18.6C53.8 18.6 53.1 19.3 53.1 20.2V26V26.1C53.1 27 53.8 27.8 54.7 27.8H61C61.9 27.8 62.6 27 62.6 26.1V26V20.2C62.6 19.3 61.9 18.6 61 18.6H54.7ZM55.9 20.2C55.3 20.2 54.9 20.7 54.9 21.2V24.8C54.9 25.4 55.4 25.8 55.9 25.9H59.8C60.4 25.9 60.8 25.4 60.8 24.8V21.2C60.8 20.6 60.3 20.2 59.8 20.2H55.9Z" fill="#A5A8B6"/>
<path fill-rule="evenodd" clip-rule="evenodd" d="M83.7 27.5C83.7 27.7 83.8 27.8 84 27.8H85.2C85.4 27.8 85.5 27.7 85.5 27.5V20.4V20.3C85.5 19.4 84.8 18.6 83.9 18.6H77.9H77.8C76.9 18.6 76.1 19.4 76.1 20.3V20.4V27.5C76.1 27.7 76.2 27.8 76.4 27.8H77.6C77.8 27.8 77.9 27.7 77.9 27.5V24.5C77.9 24.3 78 24.2 78.2 24.2H83.4C83.6 24.2 83.7 24.3 83.7 24.5V27.5ZM77.8 22.6V21.1C77.8 20.5 78.3 20.1 78.8 20.1H82.6C83.2 20.1 83.6 20.6 83.6 21.1V22.6C83.6 22.8 83.5 22.9 83.3 22.9H78.1C78 22.9 77.8 22.8 77.8 22.6Z" fill="#A5A8B6"/>
<path fill-rule="evenodd" clip-rule="evenodd" d="M108.2 27.8C108 27.8 107.9 27.7 107.9 27.5V24.5C107.9 24.3 107.8 24.2 107.6 24.2H102.3C102.1 24.2 102 24.3 102 24.5V27.5C102 27.7 101.9 27.8 101.7 27.8H100.5C100.3 27.8 100.2 27.7 100.2 27.5V20.4V20.3C100.2 19.4 101 18.6 101.9 18.6H102H108C108.9 18.6 109.6 19.4 109.6 20.3V20.4V27.5C109.6 27.7 109.5 27.8 109.3 27.8H108.2ZM102 21.1V22.6C102 22.8 102.1 22.9 102.3 22.9H107.6C107.8 22.9 107.9 22.8 107.9 22.6V21.1C107.9 20.5 107.4 20.1 106.9 20.1H103.1C102.5 20.1 102 20.5 102 21.1Z" fill="#A5A8B6"/>
<path d="M89.8 18.6C89.9 18.6 90 18.6 90 18.7L95.2 24.9C95.4 25.1 95.7 25 95.7 24.7V18.9C95.7 18.7 95.8 18.6 96 18.6H97.2C97.4 18.6 97.5 18.7 97.5 18.9V27.5C97.5 27.7 97.4 27.8 97.2 27.8H95.8L90.5 21.6C90.3 21.4 90 21.5 90 21.8V27.5C90 27.7 89.9 27.8 89.7 27.8H88.5C88.3 27.8 88.2 27.7 88.2 27.5V18.9C88.2 18.7 88.3 18.6 88.5 18.6H89.8Z" fill="#A5A8B6"/>
<path d="M14 28.1C14.1 28 14.3 27.9 14.5 27.9H33.4C33.7 27.9 33.9 28.3 33.7 28.6L30 32.2C29.9 32.3 29.7 32.4 29.5 32.4H10.6C10.3 32.4 10.1 32 10.3 31.7L14 28.1Z" fill="#A5A8B6"/>
<path d="M14 14.1C14.1 14 14.3 13.9 14.5 13.9H33.4C33.7 13.9 33.9 14.3 33.7 14.6L30 18.3C29.9 18.4 29.7 18.5 29.5 18.5H10.6C10.3 18.5 10.1 18.1 10.3 17.8L14 14.1Z" fill="#A5A8B6"/>
<path d="M30 21C29.9 20.9 29.7 20.8 29.5 20.8H10.6C10.3 20.8 10.1 21.2 10.3 21.5L14 25.2C14.1 25.3 14.3 25.4 14.5 25.4H33.4C33.7 25.4 33.9 25 33.7 24.7L30 21Z" fill="#A5A8B6"/>
</svg>
